<svg xmlns="http://www.w3.org/2000/svg"><defs><symbol id="tick" viewBox="0 0 16 14"><path d="M13.256 1.859l-7.243 8.289-3.842-3a.864.864 0 10-1.013 1.4L5.6 11.984a.864.864 0 001.123-.094l7.764-8.82a.864.864 0 00-1.231-1.211z"/></symbol><symbol id="star" viewBox="0 0 16 16"><path d="M12.831 15.97a.5.5 0 01-.2-.043l-4.616-2.052-4.609 2.052a.5.5 0 01-.692-.555l1.017-5.093-3.554-3.56a.5.5 0 01.254-.843l5.095-1.021L7.559.272a.519.519 0 01.912 0l2.034 4.583 5.094 1.021a.5.5 0 01.255.843l-3.554 3.56 1.017 5.093a.5.5 0 01-.489.6z"/></symbol><symbol id="chevron-up" viewBox="0 0 16 16"><path d="M8 5a.868.868 0 00-.624.263L3.258 9.457a.9.9 0 00-.258.634.9.9 0 00.258.636.868.868 0 00.624.264.869.869 0 00.624-.263L8 7.17l3.491 3.558a.869.869 0 00.623.263.868.868 0 00.624-.263.9.9 0 00.262-.637.9.9 0 00-.259-.636L8.622 5.263A.868.868 0 008 5z"/></symbol><symbol id="chevron-down" viewBox="0 0 16 16"><path d="M8 10.991a.868.868 0 01-.624-.263L3.258 6.534a.911.911 0 010-1.271.871.871 0 011.248 0L8 8.821l3.491-3.558a.871.871 0 011.248 0 .91.91 0 010 1.271l-4.117 4.194a.868.868 0 01-.622.263z"/></symbol><symbol id="hamburger" viewBox="0 0 384 384"><path d="M368 154.668H16c-8.832 0-16-7.168-16-16s7.168-16 16-16h352c8.832 0 16 7.168 16 16s-7.168 16-16 16zm0 0M368 32H16C7.168 32 0 24.832 0 16S7.168 0 16 0h352c8.832 0 16 7.168 16 16s-7.168 16-16 16zm0 0M368 277.332H16c-8.832 0-16-7.168-16-16s7.168-16 16-16h352c8.832 0 16 7.168 16 16s-7.168 16-16 16zm0 0"/></symbol><symbol id="close" viewBox="0 0 512.001 512.001"><path d="M284.286 256.002L506.143 34.144c7.811-7.811 7.811-20.475 0-28.285-7.811-7.81-20.475-7.811-28.285 0L256 227.717 34.143 5.859c-7.811-7.811-20.475-7.811-28.285 0-7.81 7.811-7.811 20.475 0 28.285l221.857 221.857L5.858 477.859c-7.811 7.811-7.811 20.475 0 28.285a19.938 19.938 0 0014.143 5.857 19.94 19.94 0 0014.143-5.857L256 284.287l221.857 221.857c3.905 3.905 9.024 5.857 14.143 5.857s10.237-1.952 14.143-5.857c7.811-7.811 7.811-20.475 0-28.285L284.286 256.002z"/></symbol><symbol id="tick-circle" viewBox="0 0 20 20" xmlns="http://www.w3.org/2000/svg"><path d="M10 0c5.514 0 10 4.486 10 10s-4.486 10-10 10S0 15.514 0 10 4.486 0 10 0zm0 1.578c-4.644 0-8.423 3.778-8.423 8.422S5.356 18.423 10 18.423s8.423-3.779 8.423-8.423S14.644 1.578 10 1.578zm3.832 5.37a.901.901 0 011.287 1.263l-5.597 5.865a.899.899 0 01-1.172.098L4.547 11.42a.902.902 0 011.057-1.46l3.175 2.299z" fill="#FFF" fill-rule="evenodd"/></symbol><symbol id="sort" xmlns="http://www.w3.org/2000/svg" viewBox="0 0 512 512"><path fill="currentColor" d="M240 96h64a16 16 0 0016-16V48a16 16 0 00-16-16h-64a16 16 0 00-16 16v32a16 16 0 0016 16zm0 128h128a16 16 0 0016-16v-32a16 16 0 00-16-16H240a16 16 0 00-16 16v32a16 16 0 0016 16zm256 192H240a16 16 0 00-16 16v32a16 16 0 0016 16h256a16 16 0 0016-16v-32a16 16 0 00-16-16zm-256-64h192a16 16 0 0016-16v-32a16 16 0 00-16-16H240a16 16 0 00-16 16v32a16 16 0 0016 16zm-64 0h-48V48a16 16 0 00-16-16H80a16 16 0 00-16 16v304H16c-14.19 0-21.37 17.24-11.29 27.31l80 96a16 16 0 0022.62 0l80-96C197.35 369.26 190.22 352 176 352z"/></symbol><symbol id="list" xmlns="http://www.w3.org/2000/svg" viewBox="0 0 512 512"><path fill="currentColor" d="M80 368H16a16 16 0 00-16 16v64a16 16 0 0016 16h64a16 16 0 0016-16v-64a16 16 0 00-16-16zm0-320H16A16 16 0 000 64v64a16 16 0 0016 16h64a16 16 0 0016-16V64a16 16 0 00-16-16zm0 160H16a16 16 0 00-16 16v64a16 16 0 0016 16h64a16 16 0 0016-16v-64a16 16 0 00-16-16zm416 176H176a16 16 0 00-16 16v32a16 16 0 0016 16h320a16 16 0 0016-16v-32a16 16 0 00-16-16zm0-320H176a16 16 0 00-16 16v32a16 16 0 0016 16h320a16 16 0 0016-16V80a16 16 0 00-16-16zm0 160H176a16 16 0 00-16 16v32a16 16 0 0016 16h320a16 16 0 0016-16v-32a16 16 0 00-16-16z"/></symbol><symbol id="download-tray" xmlns="http://www.w3.org/2000/svg" viewBox="0 0 512 512"><path fill="currentColor" d="M216 0h80c13.3 0 24 10.7 24 24v168h87.7c17.8 0 26.7 21.5 14.1 34.1L269.7 378.3c-7.5 7.5-19.8 7.5-27.3 0L90.1 226.1c-12.6-12.6-3.7-34.1 14.1-34.1H192V24c0-13.3 10.7-24 24-24zm296 376v112c0 13.3-10.7 24-24 24H24c-13.3 0-24-10.7-24-24V376c0-13.3 10.7-24 24-24h146.7l49 49c20.1 20.1 52.5 20.1 72.6 0l49-49H488c13.3 0 24 10.7 24 24zm-124 88c0-11-9-20-20-20s-20 9-20 20 9 20 20 20 20-9 20-20zm64 0c0-11-9-20-20-20s-20 9-20 20 9 20 20 20 20-9 20-20z"/></symbol><symbol id="user" xmlns="http://www.w3.org/2000/svg" viewBox="0 0 448 512"><path fill="currentColor" d="M224 256c70.7 0 128-57.3 128-128S294.7 0 224 0 96 57.3 96 128s57.3 128 128 128zm89.6 32h-16.7c-22.2 10.2-46.9 16-72.9 16s-50.6-5.8-72.9-16h-16.7C60.2 288 0 348.2 0 422.4V464c0 26.5 21.5 48 48 48h352c26.5 0 48-21.5 48-48v-41.6c0-74.2-60.2-134.4-134.4-134.4z"/></symbol><symbol id="pencil" xmlns="http://www.w3.org/2000/svg" viewBox="0 0 512 512"><path fill="currentColor" d="M497.9 142.1l-46.1 46.1c-4.7 4.7-12.3 4.7-17 0l-111-111c-4.7-4.7-4.7-12.3 0-17l46.1-46.1c18.7-18.7 49.1-18.7 67.9 0l60.1 60.1c18.8 18.7 18.8 49.1 0 67.9zM284.2 99.8L21.6 362.4.4 483.9c-2.9 16.4 11.4 30.6 27.8 27.8l121.5-21.3 262.6-262.6c4.7-4.7 4.7-12.3 0-17l-111-111c-4.8-4.7-12.4-4.7-17.1 0zM124.1 339.9c-5.5-5.5-5.5-14.3 0-19.8l154-154c5.5-5.5 14.3-5.5 19.8 0s5.5 14.3 0 19.8l-154 154c-5.5 5.5-14.3 5.5-19.8 0zM88 424h48v36.3l-64.5 11.3-31.1-31.1L51.7 376H88v48z"/></symbol><symbol id="envelope" xmlns="http://www.w3.org/2000/svg" viewBox="0 0 512 512"><path fill="currentColor" d="M464 64H48C21.49 64 0 85.49 0 112v288c0 26.51 21.49 48 48 48h416c26.51 0 48-21.49 48-48V112c0-26.51-21.49-48-48-48zm0 48v40.805c-22.422 18.259-58.168 46.651-134.587 106.49-16.841 13.247-50.201 45.072-73.413 44.701-23.208.375-56.579-31.459-73.413-44.701C106.18 199.465 70.425 171.067 48 152.805V112h416zM48 400V214.398c22.914 18.251 55.409 43.862 104.938 82.646 21.857 17.205 60.134 55.186 103.062 54.955 42.717.231 80.509-37.199 103.053-54.947 49.528-38.783 82.032-64.401 104.947-82.653V400H48z"/></symbol><symbol id="windows" xmlns="http://www.w3.org/2000/svg" viewBox="0 0 448 512"><path fill="currentColor" d="M0 93.7l183.6-25.3v177.4H0V93.7zm0 324.6l183.6 25.3V268.4H0v149.9zm203.8 28L448 480V268.4H203.8v177.9zm0-380.6v180.1H448V32L203.8 65.7z"/></symbol><symbol id="linux" xmlns="http://www.w3.org/2000/svg" viewBox="0 0 448 512"><path fill="currentColor" d="M220.8 123.3c1 .5 1.8 1.7 3 1.7 1.1 0 2.8-.4 2.9-1.5.2-1.4-1.9-2.3-3.2-2.9-1.7-.7-3.9-1-5.5-.1-.4.2-.8.7-.6 1.1.3 1.3 2.3 1.1 3.4 1.7zm-21.9 1.7c1.2 0 2-1.2 3-1.7 1.1-.6 3.1-.4 3.5-1.6.2-.4-.2-.9-.6-1.1-1.6-.9-3.8-.6-5.5.1-1.3.6-3.4 1.5-3.2 2.9.1 1 1.8 1.5 2.8 1.4zM420 403.8c-3.6-4-5.3-11.6-7.2-19.7-1.8-8.1-3.9-16.8-10.5-22.4-1.3-1.1-2.6-2.1-4-2.9-1.3-.8-2.7-1.5-4.1-2 9.2-27.3 5.6-54.5-3.7-79.1-11.4-30.1-31.3-56.4-46.5-74.4-17.1-21.5-33.7-41.9-33.4-72C311.1 85.4 315.7.1 234.8 0 132.4-.2 158 103.4 156.9 135.2c-1.7 23.4-6.4 41.8-22.5 64.7-18.9 22.5-45.5 58.8-58.1 96.7-6 17.9-8.8 36.1-6.2 53.3-6.5 5.8-11.4 14.7-16.6 20.2-4.2 4.3-10.3 5.9-17 8.3s-14 6-18.5 14.5c-2.1 3.9-2.8 8.1-2.8 12.4 0 3.9.6 7.9 1.2 11.8 1.2 8.1 2.5 15.7.8 20.8-5.2 14.4-5.9 24.4-2.2 31.7 3.8 7.3 11.4 10.5 20.1 12.3 17.3 3.6 40.8 2.7 59.3 12.5 19.8 10.4 39.9 14.1 55.9 10.4 11.6-2.6 21.1-9.6 25.9-20.2 12.5-.1 26.3-5.4 48.3-6.6 14.9-1.2 33.6 5.3 55.1 4.1.6 2.3 1.4 4.6 2.5 6.7v.1c8.3 16.7 23.8 24.3 40.3 23 16.6-1.3 34.1-11 48.3-27.9 13.6-16.4 36-23.2 50.9-32.2 7.4-4.5 13.4-10.1 13.9-18.3.4-8.2-4.4-17.3-15.5-29.7zM223.7 87.3c9.8-22.2 34.2-21.8 44-.4 6.5 14.2 3.6 30.9-4.3 40.4-1.6-.8-5.9-2.6-12.6-4.9 1.1-1.2 3.1-2.7 3.9-4.6 4.8-11.8-.2-27-9.1-27.3-7.3-.5-13.9 10.8-11.8 23-4.1-2-9.4-3.5-13-4.4-1-6.9-.3-14.6 2.9-21.8zM183 75.8c10.1 0 20.8 14.2 19.1 33.5-3.5 1-7.1 2.5-10.2 4.6 1.2-8.9-3.3-20.1-9.6-19.6-8.4.7-9.8 21.2-1.8 28.1 1 .8 1.9-.2-5.9 5.5-15.6-14.6-10.5-52.1 8.4-52.1zm-13.6 60.7c6.2-4.6 13.6-10 14.1-10.5 4.7-4.4 13.5-14.2 27.9-14.2 7.1 0 15.6 2.3 25.9 8.9 6.3 4.1 11.3 4.4 22.6 9.3 8.4 3.5 13.7 9.7 10.5 18.2-2.6 7.1-11 14.4-22.7 18.1-11.1 3.6-19.8 16-38.2 14.9-3.9-.2-7-1-9.6-2.1-8-3.5-12.2-10.4-20-15-8.6-4.8-13.2-10.4-14.7-15.3-1.4-4.9 0-9 4.2-12.3zm3.3 334c-2.7 35.1-43.9 34.4-75.3 18-29.9-15.8-68.6-6.5-76.5-21.9-2.4-4.7-2.4-12.7 2.6-26.4v-.2c2.4-7.6.6-16-.6-23.9-1.2-7.8-1.8-15 .9-20 3.5-6.7 8.5-9.1 14.8-11.3 10.3-3.7 11.8-3.4 19.6-9.9 5.5-5.7 9.5-12.9 14.3-18 5.1-5.5 10-8.1 17.7-6.9 8.1 1.2 15.1 6.8 21.9 16l19.6 35.6c9.5 19.9 43.1 48.4 41 68.9zm-1.4-25.9c-4.1-6.6-9.6-13.6-14.4-19.6 7.1 0 14.2-2.2 16.7-8.9 2.3-6.2 0-14.9-7.4-24.9-13.5-18.2-38.3-32.5-38.3-32.5-13.5-8.4-21.1-18.7-24.6-29.9s-3-23.3-.3-35.2c5.2-22.9 18.6-45.2 27.2-59.2 2.3-1.7.8 3.2-8.7 20.8-8.5 16.1-24.4 53.3-2.6 82.4.6-20.7 5.5-41.8 13.8-61.5 12-27.4 37.3-74.9 39.3-112.7 1.1.8 4.6 3.2 6.2 4.1 4.6 2.7 8.1 6.7 12.6 10.3 12.4 10 28.5 9.2 42.4 1.2 6.2-3.5 11.2-7.5 15.9-9 9.9-3.1 17.8-8.6 22.3-15 7.7 30.4 25.7 74.3 37.2 95.7 6.1 11.4 18.3 35.5 23.6 64.6 3.3-.1 7 .4 10.9 1.4 13.8-35.7-11.7-74.2-23.3-84.9-4.7-4.6-4.9-6.6-2.6-6.5 12.6 11.2 29.2 33.7 35.2 59 2.8 11.6 3.3 23.7.4 35.7 16.4 6.8 35.9 17.9 30.7 34.8-2.2-.1-3.2 0-4.2 0 3.2-10.1-3.9-17.6-22.8-26.1-19.6-8.6-36-8.6-38.3 12.5-12.1 4.2-18.3 14.7-21.4 27.3-2.8 11.2-3.6 24.7-4.4 39.9-.5 7.7-3.6 18-6.8 29-32.1 22.9-76.7 32.9-114.3 7.2zm257.4-11.5c-.9 16.8-41.2 19.9-63.2 46.5-13.2 15.7-29.4 24.4-43.6 25.5s-26.5-4.8-33.7-19.3c-4.7-11.1-2.4-23.1 1.1-36.3 3.7-14.2 9.2-28.8 9.9-40.6.8-15.2 1.7-28.5 4.2-38.7 2.6-10.3 6.6-17.2 13.7-21.1.3-.2.7-.3 1-.5.8 13.2 7.3 26.6 18.8 29.5 12.6 3.3 30.7-7.5 38.4-16.3 9-.3 15.7-.9 22.6 5.1 9.9 8.5 7.1 30.3 17.1 41.6 10.6 11.6 14 19.5 13.7 24.6zM173.3 148.7c2 1.9 4.7 4.5 8 7.1 6.6 5.2 15.8 10.6 27.3 10.6 11.6 0 22.5-5.9 31.8-10.8 4.9-2.6 10.9-7 14.8-10.4s5.9-6.3 3.1-6.6-2.6 2.6-6 5.1c-4.4 3.2-9.7 7.4-13.9 9.8-7.4 4.2-19.5 10.2-29.9 10.2s-18.7-4.8-24.9-9.7c-3.1-2.5-5.7-5-7.7-6.9-1.5-1.4-1.9-4.6-4.3-4.9-1.4-.1-1.8 3.7 1.7 6.5z"/></symbol><symbol id="apple" xmlns="http://www.w3.org/2000/svg" viewBox="0 0 384 512"><path fill="currentColor" d="M318.7 268.7c-.2-36.7 16.4-64.4 50-84.8-18.8-26.9-47.2-41.7-84.7-44.6-35.5-2.8-74.3 20.7-88.5 20.7-15 0-49.4-19.7-76.4-19.7C63.3 141.2 4 184.8 4 273.5q0 39.3 14.4 81.2c12.8 36.7 59 126.7 107.2 125.2 25.2-.6 43-17.9 75.8-17.9 31.8 0 48.3 17.9 76.4 17.9 48.6-.7 90.4-82.5 102.6-119.3-65.2-30.7-61.7-90-61.7-91.9zm-56.6-164.2c27.3-32.4 24.8-61.9 24-72.5-24.1 1.4-52 16.4-67.9 34.9-17.5 19.8-27.8 44.3-25.6 71.9 26.1 2 49.9-11.4 69.5-34.3z"/></symbol><symbol id="android" xmlns="http://www.w3.org/2000/svg" viewBox="0 0 576 512"><path fill="currentColor" d="M420.55 301.93a24 24 0 1124-24 24 24 0 01-24 24m-265.1 0a24 24 0 1124-24 24 24 0 01-24 24m273.7-144.48l47.94-83a10 10 0 10-17.27-10l-48.54 84.07a301.25 301.25 0 00-246.56 0l-48.54-84.07a10 10 0 10-17.27 10l47.94 83C64.53 202.22 8.24 285.55 0 384h576c-8.24-98.45-64.54-181.78-146.85-226.55"/></symbol></defs></svg>